{"glyphs":{":":{"x_min":0,"x_max":304,"ha":304,"o":"m 152 385 q 118 385 94 402 q 70 420 70 465 q 70 511 94 528 q 118 545 152 545 q 185 545 210 528 q 234 511 234 465 q 234 420 210 402 q 185 385 152 385 z m 152 -8 q 118 -8 94 10 q 70 27 70 72 q 70 118 94 135 q 118 152 152 152 q 185 152 210 135 q 234 118 234 72 q 234 27 210 10 q 185 -8 152 -8 z"},"$":{"x_min":0,"x_max":559,"ha":559,"o":"m 256 -79 l 256 43 q 180 45 134 66 q 89 88 69 120 q 49 152 49 183 q 49 226 78 244 q 107 263 143 263 q 143 188 174 146 q 205 104 256 96 l 256 312 q 183 342 143 370 q 103 399 87 432 q 71 465 71 509 q 71 581 122 628 q 174 674 256 683 l 256 760 l 312 760 l 312 684 q 400 681 442 652 q 483 624 483 584 q 483 552 456 532 q 428 511 373 511 q 373 541 359 576 q 345 611 312 625 l 312 430 q 342 415 376 401 q 410 387 440 367 q 471 347 490 316 q 509 284 509 235 q 509 158 457 107 q 405 56 312 45 l 312 -79 z m 256 457 l 256 630 q 227 625 208 605 q 188 585 188 551 q 188 524 202 502 q 216 480 256 457 z m 312 98 q 350 106 370 131 q 390 156 390 190 q 390 222 370 244 q 351 267 312 287 z"},"?":{"x_min":0,"x_max":550,"ha":550,"o":"m 208 228 l 195 351 q 252 374 282 407 q 313 440 324 478 q 336 516 336 556 q 336 604 318 634 q 299 664 258 664 q 213 664 196 626 q 178 589 178 538 q 116 538 76 556 q 37 573 37 608 q 37 657 88 690 q 140 724 250 724 q 320 724 376 702 q 431 680 463 639 q 495 598 495 540 q 495 460 446 410 q 396 360 296 319 l 283 228 z m 244 -8 q 210 -8 186 10 q 162 27 162 72 q 162 118 186 135 q 210 152 244 152 q 277 152 302 135 q 326 118 326 72 q 326 27 302 10 q 277 -8 244 -8 z"},"<":{"x_min":0,"x_max":559,"ha":559,"o":"m 494 104 l 65 337 l 65 378 l 494 612 l 494 533 l 172 357 l 494 183 z"},"'":{"x_min":0,"x_max":290,"ha":290,"o":"m 112 439 l 67 714 l 223 714 l 178 439 z"},"=":{"x_min":0,"x_max":559,"ha":559,"o":"m 63 419 l 63 489 l 496 489 l 496 419 z m 63 225 l 63 295 l 496 295 l 496 225 z"},"a":{"x_min":0,"x_max":599,"ha":599,"o":"m 202 -10 q 136 -10 90 30 q 45 70 45 153 q 45 234 100 273 q 156 312 269 316 l 351 319 l 351 374 q 351 424 340 456 q 330 488 289 488 q 251 488 236 457 q 222 426 222 380 q 155 380 121 395 q 87 410 87 447 q 87 484 115 506 q 143 528 190 538 q 236 549 293 549 q 398 549 450 511 q 503 473 503 379 l 503 124 q 503 83 516 68 q 529 53 563 53 l 567 53 l 567 0 l 381 0 l 360 69 l 351 69 q 329 42 310 24 q 290 7 265 -2 q 240 -10 202 -10 z m 257 63 q 300 63 326 98 q 351 132 351 191 l 351 266 l 306 263 q 246 260 223 232 q 200 203 200 149 q 200 63 257 63 z"},"L":{"x_min":0,"x_max":654,"ha":654,"o":"m 28 0 l 28 53 l 70 53 q 92 53 106 64 q 121 75 121 118 l 121 596 q 121 639 106 650 q 92 661 70 661 l 28 661 l 28 714 l 373 714 l 373 661 l 331 661 q 310 661 295 650 q 280 640 280 600 l 280 61 l 466 61 q 500 61 520 84 q 540 106 549 148 l 565 223 l 621 223 l 614 0 z"},"3":{"x_min":0,"x_max":559,"ha":559,"o":"m 243 -10 q 168 -10 120 7 q 73 24 50 51 q 28 78 28 110 q 28 148 53 168 q 78 188 113 188 q 113 124 147 92 q 181 60 236 60 q 268 60 296 73 q 325 86 342 118 q 359 150 359 207 q 359 264 319 301 q 279 338 204 338 l 142 338 l 142 400 l 208 400 q 272 400 304 440 q 335 481 335 547 q 335 601 314 632 q 292 663 252 663 q 216 663 198 640 q 179 618 172 582 q 166 547 166 508 q 104 508 70 530 q 36 551 36 597 q 36 650 92 687 q 148 724 257 724 q 364 724 426 682 q 488 639 488 561 q 488 494 444 448 q 400 403 335 381 q 375 374 416 354 q 457 335 485 300 q 513 264 513 206 q 513 145 490 104 q 468 62 430 37 q 391 12 343 1 q 295 -10 243 -10 z"},";":{"x_min":0,"x_max":304,"ha":304,"o":"m 152 385 q 118 385 94 402 q 70 420 70 465 q 70 511 94 528 q 118 545 152 545 q 185 545 210 528 q 234 511 234 465 q 234 420 210 402 q 185 385 152 385 z m 55 -154 l 55 -102 q 98 -86 120 -70 q 143 -53 143 -24 q 143 -10 132 -2 q 121 5 106 14 q 92 22 81 38 q 70 53 70 83 q 70 117 90 134 q 111 152 142 152 q 184 152 209 122 q 234 93 234 42 q 234 -22 193 -75 q 152 -128 55 -154 z"},"J":{"x_min":0,"x_max":397,"ha":397,"o":"m -21 -240 l -21 -182 l -3 -182 q 29 -182 58 -165 q 87 -148 105 -109 q 123 -70 123 -3 l 123 600 q 123 640 108 650 q 93 661 72 661 l 30 661 l 30 714 l 375 714 l 375 661 l 333 661 q 311 661 296 650 q 281 639 281 596 l 281 -2 q 281 -70 259 -116 q 237 -162 200 -189 q 162 -216 114 -228 q 66 -240 15 -240 z"},"V":{"x_min":0,"x_max":698,"ha":698,"o":"m 298 0 l 85 613 q 75 642 56 652 q 38 661 23 661 l 0 661 l 0 714 l 330 714 l 330 661 l 284 661 q 270 661 258 654 q 245 647 245 628 q 245 618 248 606 q 251 593 254 585 l 356 277 q 364 254 373 217 q 382 180 385 153 q 389 178 398 212 q 408 247 417 274 l 520 578 q 524 588 528 604 q 532 619 532 627 q 532 644 521 652 q 510 661 492 661 l 440 661 l 440 714 l 698 714 l 698 661 l 650 661 q 636 661 627 648 q 618 634 602 588 l 398 0 z"},"\"":{"x_min":0,"x_max":508,"ha":508,"o":"m 330 439 l 285 714 l 441 714 l 396 439 z m 112 439 l 67 714 l 223 714 l 178 439 z"},"7":{"x_min":0,"x_max":559,"ha":559,"o":"m 165 0 l 431 605 l 168 605 q 116 605 110 554 l 104 504 l 44 504 l 49 714 l 526 714 l 526 665 l 250 0 z"},"S":{"x_min":0,"x_max":586,"ha":586,"o":"m 264 -10 q 174 -10 123 12 q 72 33 51 66 q 30 98 30 130 q 30 164 46 184 q 62 205 88 214 q 114 223 143 223 q 143 138 182 94 q 220 50 280 50 q 338 50 371 81 q 404 112 404 158 q 404 209 362 240 q 321 270 237 305 q 167 334 126 366 q 85 397 68 436 q 50 474 50 523 q 50 584 82 629 q 114 674 169 699 q 224 724 295 724 q 405 724 456 690 q 508 657 508 608 q 508 573 477 549 q 446 525 385 525 q 385 553 374 585 q 364 617 341 640 q 318 663 279 663 q 238 663 209 640 q 180 616 180 571 q 180 542 193 518 q 206 495 242 472 q 278 448 345 421 q 448 379 492 330 q 536 282 536 209 q 536 144 502 95 q 469 46 408 18 q 347 -10 264 -10 z"},"}":{"x_min":0,"x_max":442,"ha":442,"o":"m 30 -125 l 30 -72 l 69 -72 q 112 -72 126 -46 q 140 -21 140 26 l 140 197 q 140 242 166 272 q 193 301 250 315 l 250 323 q 192 336 166 366 q 140 395 140 440 l 140 610 q 140 657 126 682 q 112 707 69 707 l 30 707 l 30 760 l 125 760 q 209 760 252 722 q 296 684 296 614 l 296 442 q 296 404 312 384 q 327 365 354 358 q 380 350 412 349 l 412 288 q 380 286 354 278 q 327 271 312 252 q 296 232 296 194 l 296 23 q 296 -45 252 -85 q 209 -125 125 -125 z"},"Z":{"x_min":0,"x_max":666,"ha":666,"o":"m 42 0 l 42 50 l 417 653 l 220 653 q 173 653 158 628 q 142 603 138 562 l 133 508 l 61 508 l 66 714 l 600 714 l 600 663 l 224 61 l 440 61 q 481 61 503 76 q 525 90 534 113 q 542 136 545 161 l 550 206 l 622 206 l 617 0 z"},"x":{"x_min":0,"x_max":646,"ha":646,"o":"m 11 0 l 11 53 l 20 53 q 56 53 78 66 q 99 80 129 117 l 255 269 l 129 430 q 87 483 43 483 l 30 483 l 30 536 l 344 536 l 344 483 l 341 483 q 306 483 295 474 q 284 466 284 454 q 284 437 307 408 l 363 340 l 410 397 q 435 428 435 453 q 435 471 421 477 q 407 483 384 483 l 381 483 l 381 536 l 612 536 l 612 483 l 603 483 q 574 483 554 470 q 534 458 502 419 l 399 293 l 546 106 q 568 78 588 66 q 607 53 626 53 l 639 53 l 639 0 l 321 0 l 321 53 l 326 53 q 386 53 386 86 q 386 97 380 111 q 373 125 348 155 l 291 224 l 221 137 q 212 125 206 112 q 200 100 200 87 q 200 70 214 62 q 229 53 262 53 l 265 53 l 265 0 z"},")":{"x_min":0,"x_max":400,"ha":400,"o":"m 32 -139 l 32 -75 q 94 -34 126 28 q 159 89 170 164 q 182 238 182 318 q 182 397 170 471 q 159 545 126 606 q 94 668 32 709 l 32 772 q 199 705 271 592 q 343 479 343 318 q 343 156 271 42 q 199 -72 32 -139 z"},"&":{"x_min":0,"x_max":801,"ha":801,"o":"m 301 -10 q 178 -10 112 46 q 47 102 47 203 q 47 262 70 298 q 94 335 133 358 q 172 382 218 400 q 178 447 160 487 q 142 527 142 577 q 142 643 192 684 q 243 724 343 724 q 439 724 486 682 q 534 640 534 582 q 534 521 497 482 q 460 443 382 407 l 531 251 q 537 286 539 320 q 541 354 541 382 l 541 426 l 760 426 l 760 373 l 744 373 q 710 373 682 362 q 654 351 641 305 q 634 277 623 246 q 612 214 597 182 l 697 78 q 711 63 732 58 q 752 53 779 53 l 788 53 l 788 0 l 590 0 l 521 73 q 484 36 430 13 q 376 -10 301 -10 z m 340 452 q 382 476 398 506 q 413 535 413 581 q 413 616 399 640 q 385 664 343 664 q 309 664 294 640 q 278 616 278 580 q 278 546 293 516 q 308 487 340 452 z m 326 57 q 379 57 416 74 q 453 92 477 121 l 263 349 q 221 319 208 282 q 194 244 194 198 q 194 139 230 98 q 266 57 326 57 z"},"_":{"x_min":0,"x_max":459,"ha":459,"o":"m -5 -142 l -5 -83 l 464 -83 l 464 -142 z"},"v":{"x_min":0,"x_max":606,"ha":606,"o":"m 244 0 l 80 435 q 70 464 52 474 q 33 483 0 483 l 0 536 l 310 536 l 310 483 l 268 483 q 235 483 235 451 q 235 439 238 427 q 241 415 244 407 l 311 218 q 322 186 332 152 q 342 118 347 93 q 352 117 360 148 q 368 178 375 198 l 443 399 q 448 412 451 426 q 454 440 454 454 q 454 470 443 476 q 432 483 415 483 l 386 483 l 386 536 l 606 536 l 606 483 l 586 483 q 566 483 552 470 q 538 458 521 410 l 376 0 z"},"O":{"x_min":0,"x_max":787,"ha":787,"o":"m 394 -10 q 280 -10 205 36 q 130 82 92 165 q 55 248 55 359 q 55 470 92 552 q 130 634 205 680 q 280 725 395 725 q 503 725 578 680 q 654 634 693 552 q 732 469 732 358 q 732 247 692 164 q 653 82 578 36 q 502 -10 394 -10 z m 394 55 q 488 55 526 135 q 564 215 564 358 q 564 501 526 580 q 488 660 395 660 q 301 660 262 580 q 223 501 223 358 q 223 215 262 135 q 301 55 394 55 z"},"(":{"x_min":0,"x_max":400,"ha":400,"o":"m 368 -139 q 201 -72 129 42 q 57 156 57 318 q 57 479 129 592 q 201 705 368 772 l 368 709 q 306 668 274 606 q 241 545 230 471 q 218 397 218 318 q 218 238 230 164 q 241 89 274 28 q 306 -34 368 -75 z"},"C":{"x_min":0,"x_max":668,"ha":668,"o":"m 401 -10 q 285 -10 208 36 q 131 82 93 164 q 55 247 55 358 q 55 466 94 548 q 133 631 210 678 q 286 724 400 724 q 515 724 572 690 q 628 657 628 608 q 628 570 596 546 q 564 521 503 521 q 503 554 493 586 q 483 618 458 639 q 434 660 393 660 q 298 660 260 582 q 223 503 223 358 q 223 213 268 142 q 314 70 425 70 q 474 70 509 84 q 544 99 568 120 q 593 142 610 165 q 627 151 627 122 q 627 94 606 64 q 585 33 536 12 q 486 -10 401 -10 z"},"W":{"x_min":0,"x_max":1067,"ha":1067,"o":"m 267 0 l 84 608 q 75 640 58 650 q 42 661 13 661 l 0 661 l 0 714 l 334 714 l 334 661 l 311 661 q 251 661 251 613 q 251 605 254 588 q 257 572 261 559 l 328 328 q 336 303 344 272 q 352 242 358 212 q 364 182 367 161 q 374 193 382 222 q 390 250 399 279 l 531 707 l 604 707 l 742 325 q 759 278 772 232 q 786 185 791 159 q 798 195 808 246 q 819 296 831 344 l 884 560 q 887 572 890 589 q 893 606 893 614 q 893 640 878 650 q 862 661 829 661 l 806 661 l 806 714 l 1067 714 l 1067 661 l 1048 661 q 1019 661 1002 646 q 986 632 972 583 l 817 0 l 703 0 l 535 469 l 391 0 z"},"A":{"x_min":0,"x_max":753,"ha":753,"o":"m 4 0 l 4 53 l 16 53 q 43 53 62 67 q 80 81 96 126 l 313 714 l 450 714 l 659 125 q 674 83 692 68 q 711 53 735 53 l 753 53 l 753 0 l 423 0 l 423 53 l 462 53 q 477 53 491 62 q 505 71 505 92 q 505 104 502 116 q 499 127 496 135 l 461 235 l 218 235 l 189 149 q 185 137 181 120 q 177 104 177 92 q 177 72 191 62 q 205 53 222 53 l 264 53 l 264 0 z m 239 296 l 441 296 l 388 460 q 378 494 366 536 q 353 578 345 613 q 336 581 323 540 q 310 500 298 465 z"},"f":{"x_min":0,"x_max":407,"ha":407,"o":"m 19 0 l 19 53 l 41 53 q 56 53 72 58 q 89 62 100 76 q 112 90 112 118 l 112 468 l 23 468 l 23 536 l 112 536 l 112 573 q 112 666 161 718 q 210 769 316 769 q 380 769 416 760 q 453 750 468 733 q 483 716 483 696 q 483 631 360 631 q 360 647 355 666 q 350 685 339 698 q 328 712 310 712 q 285 712 274 684 q 264 657 264 591 l 264 536 l 402 536 l 402 468 l 264 468 l 264 118 q 264 90 276 76 q 287 62 304 58 q 320 53 335 53 l 382 53 l 382 0 z"},"Q":{"x_min":0,"x_max":787,"ha":787,"o":"m 577 -240 q 517 -240 461 -216 q 405 -192 366 -140 q 328 -88 322 -4 q 187 17 121 114 q 55 211 55 359 q 55 470 92 552 q 130 634 205 680 q 280 725 395 725 q 503 725 578 680 q 654 634 693 552 q 732 469 732 358 q 732 218 670 123 q 607 28 489 0 q 494 -74 516 -113 q 538 -152 569 -167 q 600 -182 633 -182 l 649 -182 l 649 -240 z m 394 55 q 488 55 526 135 q 564 215 564 358 q 564 501 526 580 q 488 660 395 660 q 301 660 262 580 q 223 501 223 358 q 223 215 262 135 q 301 55 394 55 z"},"w":{"x_min":0,"x_max":856,"ha":856,"o":"m 199 0 l 71 430 q 60 462 44 472 q 29 483 0 483 l -3 483 l -3 536 l 290 536 l 290 483 l 277 483 q 247 483 232 474 q 217 466 217 441 q 217 433 220 421 q 222 409 225 398 l 262 268 q 272 232 280 194 q 288 156 292 131 l 295 131 q 300 156 307 182 q 314 209 327 246 l 429 531 l 494 531 l 592 236 q 604 200 610 175 q 615 150 618 131 l 621 131 q 626 156 632 178 q 637 200 648 238 l 692 384 q 696 397 698 412 q 701 426 701 434 q 701 483 635 483 l 628 483 l 628 536 l 857 536 l 857 483 l 844 483 q 815 483 800 468 q 785 454 769 405 l 640 0 l 532 0 l 423 332 l 308 0 z"},"-":{"x_min":0,"x_max":310,"ha":310,"o":"m 25 220 l 25 325 l 285 325 l 285 220 z"},"E":{"x_min":0,"x_max":653,"ha":653,"o":"m 28 0 l 28 53 l 70 53 q 91 53 106 63 q 121 73 121 113 l 121 596 q 121 639 106 650 q 92 661 70 661 l 28 661 l 28 714 l 583 714 l 587 530 l 517 530 l 512 577 q 508 614 494 634 q 479 653 448 653 l 280 653 l 280 403 l 517 403 l 517 343 l 280 343 l 280 61 l 480 61 q 510 61 524 82 q 539 104 544 137 l 552 184 l 621 184 l 614 0 z"},"s":{"x_min":0,"x_max":488,"ha":488,"o":"m 231 -10 q 122 -10 76 24 q 30 57 30 107 q 30 140 46 156 q 62 172 84 178 q 106 183 123 183 q 123 121 152 85 q 182 49 231 49 q 283 49 306 69 q 330 89 330 117 q 330 150 304 171 q 278 192 207 217 q 126 245 83 284 q 40 322 40 389 q 40 469 99 508 q 158 548 255 548 q 318 548 356 534 q 395 521 412 500 q 430 478 430 455 q 430 421 406 404 q 383 386 328 386 q 328 436 306 464 q 284 491 240 491 q 208 491 184 476 q 159 460 159 429 q 159 408 170 392 q 182 376 212 361 q 242 346 296 327 q 363 304 406 266 q 448 229 448 166 q 448 83 391 36 q 334 -10 231 -10 z"},">":{"x_min":0,"x_max":559,"ha":559,"o":"m 65 104 l 65 183 l 387 357 l 65 533 l 65 612 l 494 378 l 494 337 z"},"l":{"x_min":0,"x_max":352,"ha":352,"o":"m 17 0 l 17 53 l 29 53 q 44 53 60 58 q 77 62 88 76 q 100 90 100 118 l 100 646 q 100 672 88 686 q 76 699 60 703 q 43 707 29 707 l 17 707 l 17 760 l 252 760 l 252 118 q 252 90 264 76 q 275 62 292 58 q 308 53 323 53 l 335 53 l 335 0 z"},"8":{"x_min":0,"x_max":559,"ha":559,"o":"m 273 -10 q 190 -10 136 16 q 82 42 56 86 q 30 129 30 182 q 30 246 70 287 q 111 328 177 361 q 117 396 85 440 q 53 484 53 542 q 53 588 75 630 q 97 672 148 698 q 199 724 285 724 q 391 724 444 674 q 498 625 498 549 q 498 489 462 454 q 425 419 363 387 q 453 344 491 297 q 529 250 529 189 q 529 94 462 42 q 394 -10 273 -10 z m 302 421 q 339 442 356 472 q 372 502 372 551 q 372 580 362 606 q 351 632 330 649 q 310 666 279 666 q 238 666 216 634 q 194 602 194 554 q 194 502 222 474 q 250 445 302 421 z m 278 47 q 329 47 360 82 q 390 117 390 172 q 390 221 356 254 q 321 286 244 321 q 210 299 188 264 q 165 230 165 178 q 165 120 196 84 q 227 47 278 47 z"},"\\":{"x_min":0,"x_max":288,"ha":288,"o":"m 216 -121 l 0 760 l 71 760 l 288 -121 z"},"e":{"x_min":0,"x_max":571,"ha":571,"o":"m 306 -10 q 178 -10 112 62 q 47 134 47 265 q 47 406 112 478 q 176 549 295 549 q 404 549 466 488 q 529 427 529 308 l 529 257 l 201 257 q 204 156 238 110 q 273 65 335 65 q 387 65 423 88 q 459 112 476 146 q 503 131 503 97 q 503 54 455 22 q 407 -10 306 -10 z m 203 321 l 376 321 q 376 398 358 441 q 340 484 297 484 q 255 484 230 442 q 205 400 203 321 z"},"b":{"x_min":0,"x_max":649,"ha":649,"o":"m 397 -10 q 339 -10 302 14 q 266 39 244 78 l 235 78 l 207 0 l 17 0 l 17 53 l 24 53 q 43 53 60 58 q 78 63 89 78 q 100 92 100 123 l 100 640 q 100 683 76 695 q 53 707 21 707 l 17 707 l 17 760 l 252 760 l 252 589 q 252 574 251 551 q 250 528 248 506 q 246 483 244 468 l 251 468 q 273 505 308 526 q 344 548 401 548 q 498 548 550 482 q 602 415 602 270 q 602 124 550 57 q 497 -10 397 -10 z m 355 65 q 404 65 426 118 q 448 171 448 271 q 448 373 426 424 q 404 474 354 474 q 295 474 274 424 q 252 374 252 270 q 252 171 274 118 q 295 65 355 65 z"},"%":{"x_min":0,"x_max":906,"ha":906,"o":"m 214 280 q 119 280 76 341 q 34 402 34 503 q 34 604 76 664 q 119 724 215 724 q 305 724 350 664 q 394 604 394 503 q 394 402 350 341 q 305 280 214 280 z m 240 0 l 585 714 l 662 714 l 318 0 z m 214 330 q 252 330 266 376 q 280 421 280 503 q 280 583 266 628 q 252 673 215 673 q 178 673 162 628 q 147 583 147 503 q 147 421 162 376 q 177 330 214 330 z m 692 -10 q 597 -10 554 51 q 512 112 512 213 q 512 314 554 374 q 597 434 693 434 q 783 434 828 374 q 872 314 872 213 q 872 112 828 51 q 783 -10 692 -10 z m 692 40 q 730 40 744 86 q 758 131 758 213 q 758 293 744 338 q 730 383 693 383 q 656 383 640 338 q 625 293 625 213 q 625 131 640 86 q 655 40 692 40 z"},"m":{"x_min":0,"x_max":986,"ha":986,"o":"m 20 0 l 20 53 l 22 53 q 56 53 78 65 q 100 77 100 122 l 100 421 q 100 463 80 474 q 61 486 28 486 l 25 486 l 25 536 l 235 536 l 248 465 l 253 465 q 273 502 296 520 q 320 538 347 544 q 374 549 406 549 q 461 549 500 529 q 539 509 557 465 l 566 465 q 586 502 611 520 q 636 538 665 544 q 694 549 725 549 q 802 549 846 503 q 890 457 890 356 l 890 124 q 890 78 906 66 q 923 53 957 53 l 960 53 l 960 0 l 738 0 l 738 329 q 738 394 720 429 q 702 464 658 464 q 626 464 607 444 q 588 425 580 392 q 571 360 571 321 l 571 124 q 571 78 588 66 q 604 53 638 53 l 641 53 l 641 0 l 419 0 l 419 329 q 419 394 401 429 q 383 464 339 464 q 306 464 287 442 q 268 421 260 386 q 252 350 252 309 l 252 118 q 252 76 272 64 q 291 53 324 53 l 327 53 l 327 0 z"},"#":{"x_min":0,"x_max":559,"ha":559,"o":"m 90 0 l 128 200 l 28 200 l 28 269 l 141 269 l 176 450 l 60 450 l 60 520 l 189 520 l 224 714 l 296 714 l 260 520 l 364 520 l 401 714 l 472 714 l 435 520 l 531 520 l 531 450 l 422 450 l 388 269 l 499 269 l 499 200 l 374 200 l 337 0 l 266 0 l 303 200 l 199 200 l 161 0 z m 212 269 l 317 269 l 352 450 l 247 450 z"},",":{"x_min":0,"x_max":294,"ha":294,"o":"m 45 -154 l 45 -102 q 88 -86 110 -70 q 133 -53 133 -24 q 133 -10 122 -2 q 111 5 96 14 q 82 22 71 38 q 60 53 60 83 q 60 117 80 134 q 101 152 132 152 q 174 152 199 122 q 224 93 224 42 q 224 -22 183 -75 q 142 -128 45 -154 z"},"n":{"x_min":0,"x_max":667,"ha":667,"o":"m 20 0 l 20 53 l 22 53 q 56 53 78 65 q 100 77 100 122 l 100 418 q 100 460 80 472 q 61 483 28 483 l 25 483 l 25 536 l 235 536 l 248 465 l 253 465 q 273 502 296 520 q 320 538 347 544 q 374 549 406 549 q 483 549 527 503 q 571 457 571 356 l 571 124 q 571 78 588 66 q 604 53 638 53 l 641 53 l 641 0 l 419 0 l 419 329 q 419 394 401 429 q 383 464 339 464 q 306 464 287 442 q 268 421 260 386 q 252 350 252 309 l 252 118 q 252 76 272 64 q 291 53 324 53 l 327 53 l 327 0 z"},"h":{"x_min":0,"x_max":667,"ha":667,"o":"m 20 0 l 20 53 l 22 53 q 56 53 78 65 q 101 77 101 122 l 100 646 q 100 672 88 686 q 76 699 60 703 q 43 707 29 707 l 17 707 l 17 760 l 252 760 l 252 595 q 252 569 250 540 q 248 510 246 489 q 244 468 244 468 l 253 468 q 273 506 296 523 q 320 540 347 544 q 374 549 406 549 q 483 549 527 503 q 571 457 571 356 l 571 124 q 571 78 588 66 q 604 53 638 53 l 641 53 l 641 0 l 419 0 l 419 329 q 419 394 401 429 q 383 464 339 464 q 306 464 287 442 q 268 421 260 386 q 252 350 252 309 l 253 118 q 253 76 272 64 q 291 53 324 53 l 327 53 l 327 0 z"},"z":{"x_min":0,"x_max":529,"ha":529,"o":"m 18 0 l 18 41 l 313 468 l 167 468 q 144 468 132 453 q 120 438 110 398 l 104 374 l 44 374 l 56 536 l 488 536 l 488 493 l 192 68 l 368 68 q 398 68 412 87 q 426 106 434 149 l 440 181 l 499 181 l 494 0 z"},"B":{"x_min":0,"x_max":672,"ha":672,"o":"m 28 0 l 28 53 l 69 53 q 91 53 106 64 q 121 75 121 118 l 121 597 q 121 637 106 649 q 90 661 69 661 l 28 661 l 28 714 l 320 714 q 462 714 534 670 q 606 626 606 532 q 606 466 571 432 q 536 398 480 380 l 480 375 q 549 358 592 314 q 636 269 636 196 q 636 0 350 0 z m 279 404 l 317 404 q 387 404 412 434 q 438 464 438 532 q 438 600 410 626 q 382 653 315 653 l 279 653 z m 279 61 l 345 61 q 412 61 440 92 q 468 122 468 199 q 468 272 442 308 q 416 343 347 343 l 279 343 z"},"K":{"x_min":0,"x_max":734,"ha":734,"o":"m 28 0 l 28 53 l 70 53 q 91 53 106 63 q 121 73 121 113 l 121 600 q 121 640 106 650 q 91 661 70 661 l 28 661 l 28 714 l 373 714 l 373 661 l 331 661 q 309 661 294 650 q 279 639 279 596 l 279 363 l 434 532 q 466 566 478 589 q 491 612 491 633 q 491 650 478 656 q 466 662 435 662 l 435 714 l 706 714 l 706 662 q 666 662 632 638 q 597 613 562 574 l 430 429 l 616 134 q 646 88 672 70 q 697 53 730 53 l 734 53 l 734 0 l 680 0 q 604 0 562 10 q 521 20 498 40 q 476 60 458 92 l 323 322 l 279 287 l 279 118 q 279 75 294 64 q 309 53 331 53 l 373 53 l 373 0 z"},"R":{"x_min":0,"x_max":707,"ha":707,"o":"m 28 0 l 28 53 l 70 53 q 90 53 106 63 q 121 73 121 113 l 121 600 q 121 640 106 650 q 90 661 70 661 l 28 661 l 28 714 l 350 714 q 492 714 558 666 q 624 619 624 529 q 624 476 604 439 q 584 402 553 378 q 522 354 488 340 l 607 135 q 632 92 655 72 q 678 53 707 53 l 711 53 l 711 0 l 678 0 q 618 0 578 7 q 538 14 511 33 q 484 52 464 90 l 345 310 l 279 310 l 279 113 q 279 73 294 63 q 310 53 330 53 l 373 53 l 373 0 z m 279 368 l 335 368 q 404 368 430 405 q 456 442 456 515 q 456 591 428 623 q 400 655 333 655 l 279 655 z"},"T":{"x_min":0,"x_max":653,"ha":653,"o":"m 154 0 l 154 53 l 196 53 q 218 53 232 64 q 247 75 247 118 l 247 653 l 167 653 q 122 653 105 634 q 88 615 84 582 l 77 520 l 10 520 l 15 714 l 638 714 l 643 520 l 576 520 l 569 582 q 565 615 548 634 q 531 653 486 653 l 406 653 l 406 118 q 406 75 420 64 q 435 53 457 53 l 499 53 l 499 0 z"},"P":{"x_min":0,"x_max":638,"ha":638,"o":"m 28 0 l 28 53 l 70 53 q 92 53 106 64 q 121 75 121 118 l 121 600 q 121 640 106 650 q 91 661 70 661 l 28 661 l 28 714 l 335 714 q 474 714 541 657 q 608 600 608 502 q 608 442 579 390 q 550 338 486 306 q 421 273 313 273 l 279 273 l 279 113 q 279 73 295 63 q 311 53 332 53 l 393 53 l 393 0 z m 279 331 l 303 331 q 377 331 408 370 q 440 408 440 498 q 440 578 412 616 q 385 655 318 655 l 279 655 z"},"|":{"x_min":0,"x_max":559,"ha":559,"o":"m 243 -240 l 243 760 l 315 760 l 315 -240 z"},"t":{"x_min":0,"x_max":405,"ha":405,"o":"m 243 -10 q 176 -10 136 25 q 96 60 96 148 l 96 468 l 21 468 l 21 519 q 53 519 78 532 q 104 544 119 561 q 150 594 165 660 l 248 660 l 248 536 l 376 536 l 376 468 l 248 468 l 248 158 q 248 113 264 92 q 279 71 314 71 q 334 71 352 74 q 369 76 385 80 l 385 15 q 369 8 332 -1 q 296 -10 243 -10 z"},"M":{"x_min":0,"x_max":952,"ha":952,"o":"m 28 0 l 28 53 l 70 53 q 91 53 106 63 q 121 73 121 113 l 121 600 q 121 640 106 650 q 91 661 70 661 l 28 661 l 28 714 l 316 714 l 482 231 l 641 714 l 924 714 l 924 661 l 882 661 q 860 661 846 650 q 831 639 831 596 l 831 118 q 831 75 846 64 q 860 53 882 53 l 924 53 l 924 0 l 604 0 l 604 53 l 614 53 q 646 53 662 62 q 677 72 677 109 l 677 615 l 475 0 l 407 0 l 196 615 l 196 118 q 196 75 216 64 q 235 53 270 53 l 276 53 l 276 0 z"},"g":{"x_min":0,"x_max":560,"ha":560,"o":"m 236 -240 q 2 -240 2 -101 q 2 -48 37 -19 q 72 10 137 15 q 110 26 87 48 q 64 69 64 104 q 64 137 89 162 q 114 186 153 209 q 109 225 80 264 q 51 303 51 364 q 51 452 102 500 q 153 549 260 549 q 295 549 326 540 q 356 531 379 518 q 405 546 429 560 q 453 574 483 574 q 519 574 537 557 q 555 540 555 517 q 555 494 540 477 q 525 460 484 460 q 484 480 472 491 q 460 502 446 502 q 426 502 413 491 q 433 468 448 434 q 462 401 462 364 q 462 288 413 238 q 364 189 260 189 q 249 189 230 190 q 211 191 202 192 q 188 186 177 172 q 166 159 166 141 q 166 124 179 116 q 192 109 213 109 l 334 109 q 434 109 480 68 q 526 28 526 -44 q 526 -136 455 -188 q 384 -240 236 -240 z m 257 248 q 297 248 311 280 q 325 311 325 365 q 325 420 310 454 q 296 489 256 489 q 217 489 202 454 q 187 419 187 364 q 187 312 202 280 q 218 248 257 248 z m 238 -180 q 326 -180 366 -155 q 406 -130 406 -80 q 406 -48 386 -36 q 366 -23 325 -23 l 209 -23 q 189 -23 168 -28 q 148 -34 134 -50 q 120 -66 120 -99 q 120 -180 238 -180 z"},"j":{"x_min":0,"x_max":345,"ha":345,"o":"m 172 626 q 136 626 112 644 q 87 661 87 698 q 87 736 112 753 q 136 770 172 770 q 206 770 232 753 q 258 736 258 698 q 258 661 232 644 q 206 626 172 626 z m -20 -240 l -20 -178 l -13 -178 q 42 -178 71 -140 q 100 -102 100 0 l 100 417 q 100 460 76 472 q 52 483 20 483 l 17 483 l 17 536 l 252 536 l 252 -8 q 252 -98 220 -148 q 187 -199 130 -220 q 74 -240 0 -240 z"},"i":{"x_min":0,"x_max":352,"ha":352,"o":"m 171 626 q 135 626 110 644 q 86 661 86 698 q 86 736 110 753 q 135 770 171 770 q 206 770 232 753 q 257 736 257 698 q 257 661 232 644 q 206 626 171 626 z m 17 0 l 17 53 l 29 53 q 44 53 60 58 q 77 62 88 76 q 100 90 100 118 l 100 422 q 100 448 88 462 q 76 475 60 479 q 43 483 29 483 l 17 483 l 17 536 l 252 536 l 252 118 q 252 90 264 76 q 275 62 292 58 q 308 53 323 53 l 335 53 l 335 0 z"},"y":{"x_min":0,"x_max":579,"ha":579,"o":"m 27 -240 l 27 -182 q 96 -182 139 -160 q 182 -138 207 -98 q 232 -58 248 -5 l 68 435 q 57 461 41 468 q 25 476 4 477 l 0 477 l 0 536 l 285 536 l 285 483 l 282 483 q 254 483 238 475 q 222 467 222 446 q 222 438 226 426 q 229 414 232 407 l 301 224 q 315 186 321 162 q 327 138 329 118 q 330 139 339 164 q 348 190 351 198 l 417 394 q 421 404 424 419 q 427 434 427 443 q 427 465 409 474 q 391 482 358 483 l 354 483 l 354 536 l 579 536 l 579 483 l 575 483 q 547 482 530 466 q 514 450 499 410 l 348 0 q 322 -73 298 -120 q 275 -166 244 -192 q 213 -219 166 -230 q 118 -240 44 -240 z"},"@":{"x_min":0,"x_max":921,"ha":921,"o":"m 466 -142 q 380 -142 305 -118 q 230 -94 173 -46 q 116 2 84 74 q 51 147 51 244 q 51 344 86 430 q 122 516 186 580 q 251 643 338 678 q 426 714 530 714 q 646 714 724 671 q 802 628 842 555 q 882 482 882 392 q 882 292 852 222 q 821 152 774 114 q 726 77 676 77 q 632 77 601 99 q 570 121 553 171 l 547 171 q 526 132 494 104 q 462 77 409 77 q 367 77 332 96 q 296 114 274 152 q 252 190 252 248 q 252 288 267 336 q 282 385 314 429 q 346 473 397 501 q 448 529 521 529 q 556 529 580 520 q 605 511 621 499 l 663 520 l 687 520 l 645 270 q 643 258 640 236 q 638 214 638 202 q 638 161 654 148 q 670 135 686 135 q 712 135 739 164 q 766 193 784 250 q 801 306 801 388 q 801 480 765 541 q 729 602 666 632 q 604 663 523 663 q 452 663 385 634 q 318 604 265 549 q 212 494 180 416 q 149 337 149 238 q 149 150 175 87 q 201 24 247 -15 q 293 -54 352 -72 q 412 -91 480 -91 q 561 -91 632 -64 q 704 -38 750 -7 l 774 -45 q 722 -85 642 -114 q 561 -142 466 -142 z m 439 135 q 468 135 486 152 q 504 170 514 197 q 524 224 530 253 l 570 457 q 564 470 548 478 q 533 485 517 485 q 479 485 452 458 q 425 432 408 392 q 391 351 383 310 q 375 268 375 238 q 375 188 392 162 q 410 135 439 135 z"},".":{"x_min":0,"x_max":294,"ha":294,"o":"m 147 -8 q 112 -8 88 10 q 65 27 65 72 q 65 118 88 135 q 112 152 147 152 q 180 152 204 135 q 229 118 229 72 q 229 27 204 10 q 180 -8 147 -8 z"},"p":{"x_min":0,"x_max":645,"ha":645,"o":"m 13 -240 l 13 -187 l 25 -187 q 40 -187 56 -182 q 73 -178 84 -164 q 96 -150 96 -122 l 96 413 q 96 459 77 471 q 58 483 29 483 l 22 483 l 22 536 l 218 536 l 236 458 l 240 458 q 262 497 298 522 q 335 546 393 546 q 493 546 546 479 q 598 412 598 266 q 598 121 546 54 q 494 -12 397 -12 q 340 -12 304 10 q 269 31 247 68 l 240 68 q 242 54 244 30 q 246 7 247 -16 q 248 -38 248 -53 l 248 -122 q 248 -150 260 -164 q 271 -178 288 -182 q 304 -187 319 -187 l 341 -187 l 341 -240 z m 350 62 q 400 62 422 112 q 444 163 444 265 q 444 365 422 418 q 400 471 351 471 q 291 471 270 418 q 248 365 248 266 q 248 162 270 112 q 291 62 350 62 z"},"X":{"x_min":0,"x_max":732,"ha":732,"o":"m 10 0 l 10 53 l 16 53 q 52 53 74 72 q 95 91 120 123 l 295 351 l 130 608 q 114 634 96 648 q 78 661 44 661 l 31 661 l 31 714 l 362 714 l 362 661 l 359 661 q 324 661 312 652 q 300 644 300 632 q 300 622 308 606 q 315 590 326 573 l 409 449 l 496 571 q 505 584 514 601 q 523 618 523 632 q 523 650 506 656 q 490 661 467 661 l 464 661 l 464 714 l 698 714 l 698 661 l 689 661 q 660 661 640 646 q 619 630 590 589 l 445 391 l 629 106 q 648 75 669 64 q 690 53 709 53 l 722 53 l 722 0 l 392 0 l 392 53 l 397 53 q 457 53 457 86 q 457 97 452 110 q 446 123 424 155 l 332 294 l 224 148 q 215 135 206 119 q 198 103 198 87 q 198 70 212 62 q 226 53 259 53 l 262 53 l 262 0 z"},"*":{"x_min":0,"x_max":502,"ha":502,"o":"m 196 367 l 228 529 l 80 424 l 35 523 l 191 563 l 35 604 l 80 703 l 228 597 l 196 760 l 308 760 l 272 598 l 422 703 l 467 603 l 311 563 l 467 524 l 422 424 l 272 528 l 308 367 z"},"Y":{"x_min":0,"x_max":693,"ha":693,"o":"m 164 0 l 164 53 l 211 53 q 235 53 252 62 q 269 71 269 114 l 269 253 l 84 608 q 69 637 56 649 q 42 661 13 661 l 0 661 l 0 714 l 335 714 l 335 661 l 318 661 q 288 661 273 648 q 258 636 258 616 q 258 603 262 588 q 267 574 273 561 l 347 414 q 363 382 373 358 q 383 333 391 310 q 402 336 415 367 q 428 398 445 432 l 503 552 q 514 574 517 589 q 520 604 520 612 q 520 661 454 661 l 431 661 l 431 714 l 693 714 l 693 661 l 674 661 q 648 661 634 646 q 621 630 598 583 l 428 252 l 428 115 q 428 72 444 62 q 461 53 484 53 l 533 53 l 533 0 z"},"c":{"x_min":0,"x_max":527,"ha":527,"o":"m 295 -10 q 222 -10 166 16 q 110 43 78 104 q 47 164 47 266 q 47 374 80 436 q 112 497 168 523 q 223 549 292 549 q 389 549 440 518 q 490 488 490 444 q 490 422 480 403 q 469 384 441 372 q 413 359 361 359 q 361 394 355 423 q 349 452 335 470 q 321 488 296 488 q 267 488 246 468 q 224 449 212 400 q 201 352 201 267 q 201 166 229 116 q 257 65 320 65 q 372 65 410 88 q 448 112 465 146 q 477 138 483 126 q 489 114 489 100 q 489 75 468 50 q 448 24 405 7 q 362 -10 295 -10 z"},"!":{"x_min":0,"x_max":382,"ha":382,"o":"m 157 228 l 104 714 l 278 714 l 226 228 z m 192 -8 q 158 -8 134 10 q 110 27 110 72 q 110 118 134 135 q 158 152 192 152 q 225 152 250 135 q 274 118 274 72 q 274 27 250 10 q 225 -8 192 -8 z"},"/":{"x_min":0,"x_max":288,"ha":288,"o":"m 0 -121 l 218 760 l 288 760 l 72 -122 z"},"[":{"x_min":0,"x_max":414,"ha":414,"o":"m 100 -128 l 100 760 l 377 760 l 377 707 l 334 707 q 300 707 276 694 q 252 682 252 635 l 252 -3 q 252 -50 276 -62 q 300 -75 334 -75 l 377 -75 l 377 -128 z"},"6":{"x_min":0,"x_max":559,"ha":559,"o":"m 293 -10 q 219 -10 163 26 q 107 63 76 138 q 45 214 45 330 q 45 412 62 484 q 80 556 115 610 q 150 663 204 694 q 258 724 330 724 q 394 724 433 708 q 472 693 490 668 q 507 642 507 614 q 507 583 480 560 q 453 536 387 536 q 387 566 382 596 q 376 626 362 646 q 348 665 321 665 q 262 665 227 596 q 192 528 186 401 q 206 414 240 426 q 273 438 324 438 q 415 438 470 383 q 524 328 524 231 q 524 124 466 57 q 407 -10 293 -10 z m 296 56 q 334 56 356 96 q 379 135 379 221 q 379 302 354 340 q 330 377 287 377 q 260 377 230 362 q 199 346 186 329 q 187 185 218 120 q 250 56 296 56 z"},"r":{"x_min":0,"x_max":523,"ha":523,"o":"m 20 0 l 20 53 l 23 53 q 57 53 78 66 q 100 78 100 125 l 100 415 q 100 459 80 471 q 61 483 28 483 l 25 483 l 25 536 l 227 536 l 247 458 l 252 458 q 272 503 302 526 q 332 548 393 548 q 508 548 508 467 q 508 421 474 396 q 441 370 381 370 q 381 411 370 432 q 360 453 332 453 q 306 453 290 435 q 274 417 266 390 q 258 364 255 337 q 252 310 252 293 l 252 120 q 252 76 272 64 q 292 53 322 53 l 354 53 l 354 0 z"},"2":{"x_min":0,"x_max":559,"ha":559,"o":"m 35 0 l 35 103 l 183 254 q 244 317 278 365 q 311 413 324 457 q 337 501 337 553 q 337 610 316 636 q 295 663 259 663 q 208 663 188 620 q 167 576 167 490 q 110 490 74 512 q 39 535 39 589 q 39 625 64 656 q 88 686 137 705 q 186 724 259 724 q 371 724 430 680 q 488 635 488 558 q 488 523 476 490 q 463 457 434 418 q 405 379 355 328 q 305 276 230 205 l 130 110 l 363 110 q 427 110 446 179 l 454 210 l 513 210 l 508 0 z"},"{":{"x_min":0,"x_max":442,"ha":442,"o":"m 317 -125 q 233 -125 190 -85 q 146 -45 146 23 l 146 194 q 146 232 130 252 q 115 271 88 278 q 62 286 30 288 l 30 349 q 62 350 88 358 q 115 365 130 384 q 146 404 146 442 l 146 614 q 146 684 190 722 q 233 760 317 760 l 412 760 l 412 707 l 373 707 q 330 707 316 682 q 302 657 302 610 l 302 440 q 302 395 276 366 q 250 336 192 323 l 192 315 q 249 301 276 272 q 302 242 302 197 l 302 26 q 302 -21 316 -46 q 330 -72 373 -72 l 412 -72 l 412 -125 z"},"9":{"x_min":0,"x_max":559,"ha":559,"o":"m 227 -10 q 166 -10 130 6 q 95 23 79 48 q 63 74 63 103 q 63 125 74 140 q 86 155 112 160 q 126 115 154 84 q 182 53 232 53 q 362 53 373 343 q 350 314 316 294 q 281 275 231 275 q 145 275 90 328 q 35 381 35 482 q 35 554 62 608 q 90 663 141 694 q 192 724 264 724 q 336 724 392 689 q 449 654 482 580 q 514 506 514 388 q 514 306 498 234 q 482 161 448 106 q 413 52 358 21 q 304 -10 227 -10 z m 274 347 q 308 347 334 366 q 359 384 373 414 q 372 542 344 600 q 316 657 270 657 q 227 657 204 614 q 180 572 180 488 q 180 347 274 347 z"}," ":{"x_min":0,"x_max":260,"ha":260,"o":""},"I":{"x_min":0,"x_max":401,"ha":401,"o":"m 28 0 l 28 53 l 70 53 q 92 53 106 64 q 121 75 121 118 l 121 596 q 121 639 106 650 q 92 661 70 661 l 28 661 l 28 714 l 373 714 l 373 661 l 331 661 q 309 661 294 650 q 280 639 280 596 l 280 118 q 280 75 294 64 q 309 53 331 53 l 373 53 l 373 0 z"},"H":{"x_min":0,"x_max":819,"ha":819,"o":"m 28 0 l 28 53 l 70 53 q 91 53 106 64 q 121 75 121 118 l 121 600 q 121 640 106 650 q 90 661 70 661 l 28 661 l 28 714 l 373 714 l 373 661 l 330 661 q 309 661 294 650 q 279 639 279 596 l 279 403 l 540 403 l 540 596 q 540 639 525 650 q 510 661 489 661 l 446 661 l 446 714 l 791 714 l 791 661 l 749 661 q 728 661 713 650 q 698 639 698 596 l 698 113 q 698 73 714 63 q 729 53 749 53 l 791 53 l 791 0 l 446 0 l 446 53 l 489 53 q 510 53 525 64 q 540 75 540 118 l 540 342 l 279 342 l 279 118 q 279 75 294 64 q 309 53 330 53 l 373 53 l 373 0 z"},"4":{"x_min":0,"x_max":559,"ha":559,"o":"m 180 0 l 180 53 l 208 53 q 242 53 266 66 q 290 78 290 125 l 290 186 l 13 186 l 13 247 l 297 714 l 436 714 l 436 252 l 540 252 l 540 186 l 436 186 l 436 125 q 436 78 460 66 q 484 53 518 53 l 531 53 l 531 0 z m 83 252 l 290 252 l 290 427 q 290 470 292 521 q 293 572 297 619 q 292 607 282 587 q 271 567 258 544 q 246 522 235 503 q 224 484 218 475 z"},"~":{"x_min":0,"x_max":559,"ha":559,"o":"m 46 262 q 46 310 58 354 q 70 397 98 424 q 127 451 178 451 q 214 451 240 435 q 265 419 306 384 q 337 358 352 346 q 366 335 381 335 q 434 335 438 451 l 512 451 q 510 398 498 355 q 485 312 458 287 q 430 262 383 262 q 351 262 323 276 q 295 291 256 327 q 222 358 208 368 q 195 378 180 378 q 150 378 135 350 q 120 323 119 262 z"},"D":{"x_min":0,"x_max":767,"ha":767,"o":"m 28 0 l 28 53 l 70 53 q 92 53 106 64 q 121 75 121 118 l 121 600 q 121 640 106 650 q 91 661 70 661 l 28 661 l 28 714 l 358 714 q 524 714 618 627 q 712 540 712 370 q 712 260 672 177 q 632 94 553 47 q 474 0 358 0 z m 279 62 l 335 62 q 438 62 490 144 q 543 227 543 370 q 543 513 490 583 q 438 653 336 653 l 279 653 z"},"^":{"x_min":0,"x_max":559,"ha":559,"o":"m 46 262 l 257 714 l 300 714 l 512 262 l 434 262 l 278 605 l 124 262 z"},"0":{"x_min":0,"x_max":559,"ha":559,"o":"m 280 -10 q 188 -10 134 36 q 81 82 58 165 q 34 248 34 359 q 34 470 58 552 q 81 634 135 679 q 189 724 281 724 q 368 724 422 679 q 475 634 500 552 q 525 469 525 358 q 525 247 500 164 q 475 82 421 36 q 367 -10 280 -10 z m 280 55 q 336 55 353 135 q 370 215 370 358 q 370 501 353 580 q 336 659 281 659 q 225 659 207 580 q 189 501 189 358 q 189 215 206 135 q 224 55 280 55 z"},"F":{"x_min":0,"x_max":621,"ha":621,"o":"m 28 0 l 28 53 l 70 53 q 91 53 106 63 q 121 73 121 113 l 121 600 q 121 640 106 650 q 91 661 70 661 l 28 661 l 28 714 l 582 714 l 587 530 l 517 530 l 512 578 q 508 618 488 636 q 469 653 438 653 l 279 653 l 279 380 l 516 380 l 516 321 l 279 321 l 279 118 q 279 75 294 64 q 309 53 331 53 l 393 53 l 393 0 z"},"`":{"x_min":0,"x_max":334,"ha":334,"o":"m 226 606 q 202 620 174 640 q 146 659 119 681 q 92 703 70 723 q 49 743 40 756 l 40 766 l 197 766 q 208 744 225 717 q 242 690 261 664 q 280 638 294 619 l 294 606 z"},"k":{"x_min":0,"x_max":636,"ha":636,"o":"m 17 0 l 17 53 l 29 53 q 44 53 60 58 q 77 62 88 76 q 100 90 100 118 l 100 646 q 100 672 88 686 q 76 699 60 703 q 43 707 29 707 l 17 707 l 17 760 l 252 760 l 252 374 q 252 356 251 332 q 250 307 248 288 q 247 270 247 270 l 373 411 q 390 430 395 441 q 400 452 400 459 q 400 486 348 486 l 348 536 l 600 536 l 600 486 q 566 486 532 466 q 498 445 459 401 l 396 329 l 529 131 q 555 91 582 72 q 609 53 633 53 l 636 53 l 636 0 l 622 0 q 567 0 530 2 q 492 5 466 14 q 440 22 420 40 q 400 58 381 89 l 292 229 l 252 199 l 252 118 q 252 90 264 76 q 275 62 292 58 q 308 53 323 53 l 335 53 l 335 0 z"},"u":{"x_min":0,"x_max":667,"ha":667,"o":"m 258 -10 q 180 -10 138 38 q 96 87 96 188 l 96 412 q 96 456 80 470 q 64 483 28 483 l 26 483 l 26 536 l 248 536 l 248 216 q 248 152 264 114 q 280 75 324 75 q 372 75 394 116 q 415 157 415 227 l 415 419 q 415 462 394 472 q 372 483 343 483 l 340 483 l 340 536 l 567 536 l 567 116 q 567 72 586 62 q 605 53 634 53 l 642 53 l 642 0 l 443 0 l 421 71 l 416 71 q 386 19 346 4 q 305 -10 258 -10 z"},"]":{"x_min":0,"x_max":414,"ha":414,"o":"m 37 -128 l 37 -75 l 80 -75 q 114 -75 138 -62 q 162 -50 162 -3 l 162 635 q 162 682 138 694 q 114 707 80 707 l 37 707 l 37 760 l 314 760 l 314 -128 z"},"U":{"x_min":0,"x_max":747,"ha":747,"o":"m 387 -10 q 256 -10 183 42 q 110 95 110 218 l 110 600 q 110 640 94 650 q 79 661 59 661 l 16 661 l 16 714 l 361 714 l 361 661 l 319 661 q 298 661 283 650 q 268 639 268 596 l 268 210 q 268 126 308 94 q 349 61 417 61 q 484 61 523 96 q 562 132 562 208 l 562 600 q 562 640 547 650 q 532 661 511 661 l 469 661 l 469 714 l 731 714 l 731 661 l 688 661 q 667 661 652 650 q 637 639 637 596 l 637 206 q 637 106 578 48 q 518 -10 387 -10 z"},"o":{"x_min":0,"x_max":613,"ha":613,"o":"m 305 -10 q 185 -10 116 60 q 47 129 47 270 q 47 411 113 480 q 179 549 308 549 q 428 549 497 480 q 566 411 566 270 q 566 129 500 60 q 433 -10 305 -10 z m 307 53 q 365 53 388 108 q 411 164 411 270 q 411 377 388 431 q 364 485 306 485 q 248 485 225 431 q 202 377 202 270 q 202 164 226 108 q 249 53 307 53 z"},"N":{"x_min":0,"x_max":788,"ha":788,"o":"m 28 0 l 28 53 l 70 53 q 91 53 106 64 q 121 75 121 118 l 121 600 q 121 640 106 650 q 90 661 70 661 l 28 661 l 28 714 l 250 714 l 603 215 l 603 600 q 603 640 588 650 q 572 661 552 661 l 510 661 l 510 714 l 771 714 l 771 661 l 729 661 q 708 661 693 650 q 678 639 678 596 l 678 0 l 586 0 l 196 551 l 196 118 q 196 75 211 64 q 226 53 247 53 l 289 53 l 289 0 z"},"+":{"x_min":0,"x_max":559,"ha":559,"o":"m 243 143 l 243 322 l 65 322 l 65 393 l 243 393 l 243 572 l 315 572 l 315 393 l 494 393 l 494 322 l 315 322 l 315 143 z"},"G":{"x_min":0,"x_max":769,"ha":769,"o":"m 423 -10 q 299 -10 218 36 q 136 82 96 164 q 55 247 55 358 q 55 466 97 548 q 139 631 222 678 q 306 724 428 724 q 552 724 615 690 q 678 657 678 608 q 678 573 645 548 q 612 523 549 523 q 549 584 519 622 q 489 660 425 660 q 316 660 270 582 q 223 503 223 358 q 223 213 272 136 q 320 58 438 58 q 457 58 476 60 q 494 61 511 65 l 511 212 q 511 252 493 268 q 475 283 440 283 l 427 283 l 427 336 l 741 336 l 741 283 l 728 283 q 697 283 683 267 q 669 251 669 208 l 669 44 q 610 17 550 4 q 491 -10 423 -10 z"},"q":{"x_min":0,"x_max":648,"ha":648,"o":"m 297 -240 l 297 -187 l 315 -187 q 348 -187 372 -176 q 396 -166 396 -125 l 396 -52 q 396 -20 398 13 q 401 46 404 70 l 397 70 q 376 36 340 13 q 304 -10 248 -10 q 151 -10 98 57 q 46 124 46 269 q 46 413 99 480 q 152 546 250 546 q 308 546 345 522 q 382 498 404 458 l 413 458 l 433 536 l 635 536 l 635 483 l 631 483 q 609 483 590 478 q 571 473 560 458 q 548 444 548 413 l 548 -125 q 548 -166 572 -176 q 596 -187 629 -187 l 647 -187 l 647 -240 z m 293 64 q 352 64 374 116 q 396 168 396 267 q 396 370 374 420 q 352 471 293 471 q 243 471 222 420 q 200 370 200 268 q 200 168 222 116 q 243 64 293 64 z"},"d":{"x_min":0,"x_max":649,"ha":649,"o":"m 250 -10 q 152 -10 99 56 q 46 123 46 267 q 46 412 98 480 q 151 548 248 548 q 304 548 340 525 q 376 502 397 468 l 404 468 q 400 496 398 531 q 396 566 396 590 l 396 645 q 396 686 372 696 q 348 707 315 707 l 307 707 l 307 760 l 548 760 l 548 123 q 548 92 560 78 q 571 63 590 58 q 609 53 631 53 l 635 53 l 635 0 l 441 0 l 413 78 l 404 78 q 382 38 345 14 q 308 -10 250 -10 z m 293 65 q 352 65 374 116 q 396 166 396 269 q 396 368 374 421 q 352 474 293 474 q 243 474 222 421 q 200 368 200 268 q 200 166 222 116 q 243 65 293 65 z"},"1":{"x_min":0,"x_max":559,"ha":559,"o":"m 97 0 l 97 53 l 179 53 q 204 53 216 66 q 229 80 229 118 l 229 619 q 191 572 160 544 q 130 515 100 515 q 76 515 59 535 q 42 555 42 589 q 72 596 109 612 q 146 629 196 666 l 266 718 l 378 718 l 378 118 q 378 86 388 70 q 398 53 429 53 l 510 53 l 510 0 z"},"5":{"x_min":0,"x_max":559,"ha":559,"o":"m 245 -10 q 170 -10 125 8 q 80 25 60 52 q 40 80 40 111 q 40 146 62 163 q 84 180 120 180 q 120 152 130 124 q 141 96 165 78 q 189 60 230 60 q 263 60 291 74 q 319 89 336 124 q 353 158 353 220 q 353 295 318 332 q 282 368 217 368 q 179 368 154 362 q 128 357 106 350 l 60 368 l 92 714 l 470 714 l 475 532 l 418 532 l 410 566 q 406 584 397 594 q 388 604 364 604 l 156 604 l 140 419 q 156 425 188 430 q 219 434 250 434 q 366 434 436 380 q 506 327 506 220 q 506 155 482 111 q 459 67 420 40 q 382 14 336 2 q 290 -10 245 -10 z"}}}
